  0
SECTION
  2
HEADER
  9
$ACADVER
  1
AC1027
  9
$ACADMAINTVER
 70
105
  9
$DWGCODEPAGE
  3
ANSI_1252
  9
$LASTSAVEDBY
  1
ezdxf
  9
$REQUIREDVERSIONS
160
0
  9
$INSBASE
 10
0.0
 20
0.0
 30
0.0
  9
$EXTMIN
 10
1e+20
 20
1e+20
 30
1e+20
  9
$EXTMAX
 10
-1e+20
 20
-1e+20
 30
-1e+20
  9
$LIMMIN
 10
0.0
 20
0.0
  9
$LIMMAX
 10
420.0
 20
297.0
  9
$ORTHOMODE
 70
0
  9
$REGENMODE
 70
1
  9
$FILLMODE
 70
1
  9
$QTEXTMODE
 70
0
  9
$MIRRTEXT
 70
1
  9
$LTSCALE
 40
1.0
  9
$ATTMODE
 70
1
  9
$TEXTSIZE
 40
2.5
  9
$TRACEWID
 40
1.0
  9
$TEXTSTYLE
  7
Standard
  9
$CLAYER
  8
0
  9
$CELTYPE
  6
ByLayer
  9
$CECOLOR
 62
256
  9
$CELTSCALE
 40
1.0
  9
$DISPSILH
 70
0
  9
$DIMSCALE
 40
1.0
  9
$DIMASZ
 40
2.5
  9
$DIMEXO
 40
0.625
  9
$DIMDLI
 40
3.75
  9
$DIMRND
 40
0.0
  9
$DIMDLE
 40
0.0
  9
$DIMEXE
 40
1.25
  9
$DIMTP
 40
0.0
  9
$DIMTM
 40
0.0
  9
$DIMTXT
 40
2.5
  9
$DIMCEN
 40
2.5
  9
$DIMTSZ
 40
0.0
  9
$DIMTOL
 70
0
  9
$DIMLIM
 70
0
  9
$DIMTIH
 70
0
  9
$DIMTOH
 70
0
  9
$DIMSE1
 70
0
  9
$DIMSE2
 70
0
  9
$DIMTAD
 70
1
  9
$DIMZIN
 70
8
  9
$DIMBLK
  1

  9
$DIMASO
 70
1
  9
$DIMSHO
 70
1
  9
$DIMPOST
  1

  9
$DIMAPOST
  1

  9
$DIMALT
 70
0
  9
$DIMALTD
 70
3
  9
$DIMALTF
 40
0.03937007874
  9
$DIMLFAC
 40
1.0
  9
$DIMTOFL
 70
1
  9
$DIMTVP
 40
0.0
  9
$DIMTIX
 70
0
  9
$DIMSOXD
 70
0
  9
$DIMSAH
 70
0
  9
$DIMBLK1
  1

  9
$DIMBLK2
  1

  9
$DIMSTYLE
  2
ISO-25
  9
$DIMCLRD
 70
0
  9
$DIMCLRE
 70
0
  9
$DIMCLRT
 70
0
  9
$DIMTFAC
 40
1.0
  9
$DIMGAP
 40
0.625
  9
$DIMJUST
 70
0
  9
$DIMSD1
 70
0
  9
$DIMSD2
 70
0
  9
$DIMTOLJ
 70
0
  9
$DIMTZIN
 70
8
  9
$DIMALTZ
 70
0
  9
$DIMALTTZ
 70
0
  9
$DIMUPT
 70
0
  9
$DIMDEC
 70
2
  9
$DIMTDEC
 70
2
  9
$DIMALTU
 70
2
  9
$DIMALTTD
 70
3
  9
$DIMTXSTY
  7
Standard
  9
$DIMAUNIT
 70
0
  9
$DIMADEC
 70
0
  9
$DIMALTRND
 40
0.0
  9
$DIMAZIN
 70
0
  9
$DIMDSEP
 70
44
  9
$DIMATFIT
 70
3
  9
$DIMFRAC
 70
0
  9
$DIMLDRBLK
  1

  9
$DIMLUNIT
 70
2
  9
$DIMLWD
 70
-2
  9
$DIMLWE
 70
-2
  9
$DIMTMOVE
 70
0
  9
$DIMFXL
 40
1.0
  9
$DIMFXLON
 70
0
  9
$DIMJOGANG
 40
0.785398163397
  9
$DIMTFILL
 70
0
  9
$DIMTFILLCLR
 70
0
  9
$DIMARCSYM
 70
0
  9
$DIMLTYPE
  6

  9
$DIMLTEX1
  6

  9
$DIMLTEX2
  6

  9
$DIMTXTDIRECTION
 70
0
  9
$LUNITS
 70
2
  9
$LUPREC
 70
4
  9
$SKETCHINC
 40
1.0
  9
$FILLETRAD
 40
10.0
  9
$AUNITS
 70
0
  9
$AUPREC
 70
2
  9
$MENU
  1
.
  9
$ELEVATION
 40
0.0
  9
$PELEVATION
 40
0.0
  9
$THICKNESS
 40
0.0
  9
$LIMCHECK
 70
0
  9
$CHAMFERA
 40
0.0
  9
$CHAMFERB
 40
0.0
  9
$CHAMFERC
 40
0.0
  9
$CHAMFERD
 40
0.0
  9
$SKPOLY
 70
0
  9
$TDCREATE
 40
2461314.889050926
  9
$TDUCREATE
 40
2458532.153996898
  9
$TDUPDATE
 40
2461314.889050926
  9
$TDUUPDATE
 40
2458532.1544311
  9
$TDINDWG
 40
0.0
  9
$TDUSRTIMER
 40
0.0
  9
$USRTIMER
 70
1
  9
$ANGBASE
 50
0.0
  9
$ANGDIR
 70
0
  9
$PDMODE
 70
0
  9
$PDSIZE
 40
0.0
  9
$PLINEWID
 40
0.0
  9
$SPLFRAME
 70
0
  9
$SPLINETYPE
 70
6
  9
$SPLINESEGS
 70
8
  9
$HANDSEED
  5
93
  9
$SURFTAB1
 70
6
  9
$SURFTAB2
 70
6
  9
$SURFTYPE
 70
6
  9
$SURFU
 70
6
  9
$SURFV
 70
6
  9
$UCSBASE
  2

  9
$UCSNAME
  2

  9
$UCSORG
 10
0.0
 20
0.0
 30
0.0
  9
$UCSXDIR
 10
1.0
 20
0.0
 30
0.0
  9
$UCSYDIR
 10
0.0
 20
1.0
 30
0.0
  9
$UCSORTHOREF
  2

  9
$UCSORTHOVIEW
 70
0
  9
$UCSORGTOP
 10
0.0
 20
0.0
 30
0.0
  9
$UCSORGBOTTOM
 10
0.0
 20
0.0
 30
0.0
  9
$UCSORGLEFT
 10
0.0
 20
0.0
 30
0.0
  9
$UCSORGRIGHT
 10
0.0
 20
0.0
 30
0.0
  9
$UCSORGFRONT
 10
0.0
 20
0.0
 30
0.0
  9
$UCSORGBACK
 10
0.0
 20
0.0
 30
0.0
  9
$PUCSBASE
  2

  9
$PUCSNAME
  2

  9
$PUCSORG
 10
0.0
 20
0.0
 30
0.0
  9
$PUCSXDIR
 10
1.0
 20
0.0
 30
0.0
  9
$PUCSYDIR
 10
0.0
 20
1.0
 30
0.0
  9
$PUCSORTHOREF
  2

  9
$PUCSORTHOVIEW
 70
0
  9
$PUCSORGTOP
 10
0.0
 20
0.0
 30
0.0
  9
$PUCSORGBOTTOM
 10
0.0
 20
0.0
 30
0.0
  9
$PUCSORGLEFT
 10
0.0
 20
0.0
 30
0.0
  9
$PUCSORGRIGHT
 10
0.0
 20
0.0
 30
0.0
  9
$PUCSORGFRONT
 10
0.0
 20
0.0
 30
0.0
  9
$PUCSORGBACK
 10
0.0
 20
0.0
 30
0.0
  9
$USERI1
 70
0
  9
$USERI2
 70
0
  9
$USERI3
 70
0
  9
$USERI4
 70
0
  9
$USERI5
 70
0
  9
$USERR1
 40
0.0
  9
$USERR2
 40
0.0
  9
$USERR3
 40
0.0
  9
$USERR4
 40
0.0
  9
$USERR5
 40
0.0
  9
$WORLDVIEW
 70
1
  9
$SHADEDGE
 70
3
  9
$SHADEDIF
 70
70
  9
$TILEMODE
 70
1
  9
$MAXACTVP
 70
64
  9
$PINSBASE
 10
0.0
 20
0.0
 30
0.0
  9
$PLIMCHECK
 70
0
  9
$PEXTMIN
 10
1e+20
 20
1e+20
 30
1e+20
  9
$PEXTMAX
 10
-1e+20
 20
-1e+20
 30
-1e+20
  9
$PLIMMIN
 10
0.0
 20
0.0
  9
$PLIMMAX
 10
420.0
 20
297.0
  9
$UNITMODE
 70
0
  9
$VISRETAIN
 70
1
  9
$PLINEGEN
 70
0
  9
$PSLTSCALE
 70
1
  9
$TREEDEPTH
 70
3020
  9
$CMLSTYLE
  2
Standard
  9
$CMLJUST
 70
0
  9
$CMLSCALE
 40
20.0
  9
$PROXYGRAPHICS
 70
1
  9
$MEASUREMENT
 70
1
  9
$CELWEIGHT
370
-1
  9
$ENDCAPS
280
0
  9
$JOINSTYLE
280
0
  9
$LWDISPLAY
290
0
  9
$INSUNITS
 70
6
  9
$HYPERLINKBASE
  1

  9
$STYLESHEET
  1

  9
$XEDIT
290
1
  9
$CEPSNTYPE
380
0
  9
$PSTYLEMODE
290
1
  9
$FINGERPRINTGUID
  2
{BAC80853-EFF7-4C9F-8645-42B21E9660F3}
  9
$VERSIONGUID
  2
{88DF1605-6914-41BD-AF4B-EDBABC1C2CE2}
  9
$EXTNAMES
290
1
  9
$PSVPSCALE
 40
0.0
  9
$OLESTARTUP
290
0
  9
$SORTENTS
280
127
  9
$INDEXCTL
280
0
  9
$HIDETEXT
280
1
  9
$XCLIPFRAME
280
1
  9
$HALOGAP
280
0
  9
$OBSCOLOR
 70
257
  9
$OBSLTYPE
280
0
  9
$INTERSECTIONDISPLAY
280
0
  9
$INTERSECTIONCOLOR
 70
257
  9
$DIMASSOC
280
2
  9
$PROJECTNAME
  1

  9
$CAMERADISPLAY
290
0
  9
$LENSLENGTH
 40
50.0
  9
$CAMERAHEIGHT
 40
0.0
  9
$STEPSPERSEC
 40
24.0
  9
$STEPSIZE
 40
100.0
  9
$3DDWFPREC
 40
2.0
  9
$PSOLWIDTH
 40
0.005
  9
$PSOLHEIGHT
 40
0.08
  9
$LOFTANG1
 40
1.570796326795
  9
$LOFTANG2
 40
1.570796326795
  9
$LOFTMAG1
 40
0.0
  9
$LOFTMAG2
 40
0.0
  9
$LOFTPARAM
 70
7
  9
$LOFTNORMALS
280
1
  9
$LATITUDE
 40
37.795
  9
$LONGITUDE
 40
-122.394
  9
$NORTHDIRECTION
 40
0.0
  9
$TIMEZONE
 70
-8000
  9
$LIGHTGLYPHDISPLAY
280
1
  9
$TILEMODELIGHTSYNCH
280
1
  9
$CMATERIAL
347
20
  9
$SOLIDHIST
280
0
  9
$SHOWHIST
280
1
  9
$DWFFRAME
280
2
  9
$DGNFRAME
280
2
  9
$REALWORLDSCALE
290
1
  9
$INTERFERECOLOR
 62
256
  9
$CSHADOW
280
0
  9
$SHADOWPLANELOCATION
 40
0.0
  0
ENDSEC
  0
SECTION
  2
CLASSES
  0
CLASS
  1
ACDBDICTIONARYWDFLT
  2
AcDbDictionaryWithDefault
  3
ObjectDBX Classes
 90
0
 91
0
280
0
281
0
  0
CLASS
  1
SUN
  2
AcDbSun
  3
SCENEOE
 90
1153
 91
0
280
0
281
0
  0
CLASS
  1
VISUALSTYLE
  2
AcDbVisualStyle
  3
ObjectDBX Classes
 90
4095
 91
0
280
0
281
0
  0
CLASS
  1
MATERIAL
  2
AcDbMaterial
  3
ObjectDBX Classes
 90
1153
 91
0
280
0
281
0
  0
CLASS
  1
SCALE
  2
AcDbScale
  3
ObjectDBX Classes
 90
1153
 91
0
280
0
281
0
  0
CLASS
  1
TABLESTYLE
  2
AcDbTableStyle
  3
ObjectDBX Classes
 90
4095
 91
0
280
0
281
0
  0
CLASS
  1
MLEADERSTYLE
  2
AcDbMLeaderStyle
  3
ACDB_MLEADERSTYLE_CLASS
 90
4095
 91
0
280
0
281
0
  0
CLASS
  1
DICTIONARYVAR
  2
AcDbDictionaryVar
  3
ObjectDBX Classes
 90
0
 91
0
280
0
281
0
  0
CLASS
  1
CELLSTYLEMAP
  2
AcDbCellStyleMap
  3
ObjectDBX Classes
 90
1152
 91
0
280
0
281
0
  0
CLASS
  1
MENTALRAYRENDERSETTINGS
  2
AcDbMentalRayRenderSettings
  3
SCENEOE
 90
1024
 91
0
280
0
281
0
  0
CLASS
  1
ACDBDETAILVIEWSTYLE
  2
AcDbDetailViewStyle
  3
ObjectDBX Classes
 90
1025
 91
0
280
0
281
0
  0
CLASS
  1
ACDBSECTIONVIEWSTYLE
  2
AcDbSectionViewStyle
  3
ObjectDBX Classes
 90
1025
 91
0
280
0
281
0
  0
CLASS
  1
RASTERVARIABLES
  2
AcDbRasterVariables
  3
ISM
 90
0
 91
0
280
0
281
0
  0
CLASS
  1
LAYOUT
  2
AcDbLayout
  3
ObjectDBX Classes
 90
0
 91
0
280
0
281
0
  0
CLASS
  1
ACDBPLACEHOLDER
  2
AcDbPlaceHolder
  3
ObjectDBX Classes
 90
0
 91
0
280
0
281
0
  0
ENDSEC
  0
SECTION
  2
TABLES
  0
TABLE
  2
VPORT
  5
8
330
0
100
AcDbSymbolTable
 70
1
  0
VPORT
  5
23
330
8
100
AcDbSymbolTableRecord
100
AcDbViewportTableRecord
  2
*Active
 70
0
 10
0.0
 20
0.0
 11
1.0
 21
1.0
 12
0.0
 22
0.0
 13
0.0
 23
0.0
 14
0.5
 24
0.5
 15
0.5
 25
0.5
 16
0.0
 26
0.0
 36
1.0
 17
0.0
 27
0.0
 37
0.0
 40
1000.0
 41
1.34
 42
50.0
 43
0.0
 44
0.0
 50
0.0
 51
0.0
 71
0
 72
1000
 73
1
 74
3
 75
0
 76
0
 77
0
 78
0
281
0
 65
0
146
0.0
  0
ENDTAB
  0
TABLE
  2
LTYPE
  5
2
330
0
100
AcDbSymbolTable
 70
3
  0
LTYPE
  5
24
330
2
100
AcDbSymbolTableRecord
100
AcDbLinetypeTableRecord
  2
ByBlock
 70
0
  3

 72
65
 73
0
 40
0.0
  0
LTYPE
  5
25
330
2
100
AcDbSymbolTableRecord
100
AcDbLinetypeTableRecord
  2
ByLayer
 70
0
  3

 72
65
 73
0
 40
0.0
  0
LTYPE
  5
26
330
2
100
AcDbSymbolTableRecord
100
AcDbLinetypeTableRecord
  2
Continuous
 70
0
  3

 72
65
 73
0
 40
0.0
  0
ENDTAB
  0
TABLE
  2
LAYER
  5
1
330
0
100
AcDbSymbolTable
 70
10
  0
LAYER
  5
27
330
1
100
AcDbSymbolTableRecord
100
AcDbLayerTableRecord
  2
0
 70
0
 62
7
  6
Continuous
370
-3
390
13
347
21
  0
LAYER
  5
28
330
1
100
AcDbSymbolTableRecord
100
AcDbLayerTableRecord
  2
Defpoints
 70
0
 62
7
  6
Continuous
290
0
370
-3
390
13
347
21
  0
LAYER
  5
2F
330
1
100
AcDbSymbolTableRecord
100
AcDbLayerTableRecord
  2
BORDURE
 70
0
 62
7
  6
Continuous
370
-3
390
13
347
21
  0
LAYER
  5
30
330
1
100
AcDbSymbolTableRecord
100
AcDbLayerTableRecord
  2
CANDELABRE
 70
0
 62
30
  6
Continuous
370
-3
390
13
347
21
  0
LAYER
  5
31
330
1
100
AcDbSymbolTableRecord
100
AcDbLayerTableRecord
  2
ARBRES
 70
0
 62
82
  6
Continuous
370
-3
390
13
347
21
  0
LAYER
  5
32
330
1
100
AcDbSymbolTableRecord
100
AcDbLayerTableRecord
  2
AVALOIRS
 70
0
 62
150
  6
Continuous
370
-3
390
13
347
21
  0
LAYER
  5
33
330
1
100
AcDbSymbolTableRecord
100
AcDbLayerTableRecord
  2
EMPRISE_CHANTIER
 70
0
 62
6
  6
Continuous
370
-3
390
13
347
21
  0
LAYER
  5
34
330
1
100
AcDbSymbolTableRecord
100
AcDbLayerTableRecord
  2
COTATION
 70
0
 62
4
  6
Continuous
370
-3
390
13
347
21
  0
LAYER
  5
35
330
1
100
AcDbSymbolTableRecord
100
AcDbLayerTableRecord
  2
CARTOUCHE
 70
0
 62
7
  6
Continuous
370
-3
390
13
347
21
  0
LAYER
  5
36
330
1
100
AcDbSymbolTableRecord
100
AcDbLayerTableRecord
  2
MOBILIER_DIVERS
 70
0
 62
40
  6
Continuous
370
-3
390
13
347
21
  0
ENDTAB
  0
TABLE
  2
STYLE
  5
5
330
0
100
AcDbSymbolTable
 70
1
  0
STYLE
  5
29
330
5
100
AcDbSymbolTableRecord
100
AcDbTextStyleTableRecord
  2
Standard
 70
0
 40
0.0
 41
1.0
 50
0.0
 71
0
 42
2.5
  3
txt
  4

  0
ENDTAB
  0
TABLE
  2
VIEW
  5
7
330
0
100
AcDbSymbolTable
 70
0
  0
ENDTAB
  0
TABLE
  2
UCS
  5
6
330
0
100
AcDbSymbolTable
 70
0
  0
ENDTAB
  0
TABLE
  2
APPID
  5
3
330
0
100
AcDbSymbolTable
 70
3
  0
APPID
  5
2A
330
3
100
AcDbSymbolTableRecord
100
AcDbRegAppTableRecord
  2
ACAD
 70
0
  0
APPID
  5
90
330
3
100
AcDbSymbolTableRecord
100
AcDbRegAppTableRecord
  2
HATCHBACKGROUNDCOLOR
 70
0
  0
APPID
  5
91
330
3
100
AcDbSymbolTableRecord
100
AcDbRegAppTableRecord
  2
EZDXF
 70
0
  0
ENDTAB
  0
TABLE
  2
DIMSTYLE
  5
4
330
0
100
AcDbSymbolTable
 70
1
100
AcDbDimStyleTable
  0
DIMSTYLE
105
2B
330
4
100
AcDbSymbolTableRecord
100
AcDbDimStyleTableRecord
  2
Standard
 70
0
 40
1.0
 41
2.5
 42
0.625
 43
3.75
 44
1.25
 45
0.0
 46
0.0
 47
0.0
 48
0.0
 49
2.5
140
2.5
141
2.5
142
0.0
143
0.03937007874
144
1.0
145
0.0
146
1.0
147
0.625
148
0.0
 69
0
 70
0
 71
0
 72
0
 73
0
 74
0
 75
0
 76
0
 77
1
 78
8
 79
3
170
0
171
3
172
1
173
0
174
0
175
0
176
0
177
0
178
0
179
2
271
2
272
2
273
2
274
3
275
0
276
0
277
2
278
44
279
0
280
0
281
0
282
0
283
0
284
8
285
0
286
0
288
0
289
3
290
0
371
-2
372
-2
  0
ENDTAB
  0
TABLE
  2
BLOCK_RECORD
  5
9
330
0
100
AcDbSymbolTable
 70
5
  0
BLOCK_RECORD
  5
17
330
9
100
AcDbSymbolTableRecord
100
AcDbBlockTableRecord
  2
*Model_Space
340
1A
 70
0
280
1
281
0
  0
BLOCK_RECORD
  5
1B
330
9
100
AcDbSymbolTableRecord
100
AcDbBlockTableRecord
  2
*Paper_Space
340
1E
 70
0
280
1
281
0
  0
BLOCK_RECORD
  5
37
330
9
100
AcDbSymbolTableRecord
100
AcDbBlockTableRecord
  2
LAMP
340
0
 70
0
280
1
281
0
  0
BLOCK_RECORD
  5
3D
330
9
100
AcDbSymbolTableRecord
100
AcDbBlockTableRecord
  2
TREE
340
0
 70
0
280
1
281
0
  0
BLOCK_RECORD
  5
43
330
9
100
AcDbSymbolTableRecord
100
AcDbBlockTableRecord
  2
AVAL
340
0
 70
0
280
1
281
0
  0
ENDTAB
  0
ENDSEC
  0
SECTION
  2
BLOCKS
  0
BLOCK
  5
18
330
17
100
AcDbEntity
  8
0
100
AcDbBlockBegin
  2
*Model_Space
 70
0
 10
0.0
 20
0.0
 30
0.0
  3
*Model_Space
  1

  0
ENDBLK
  5
19
330
17
100
AcDbEntity
  8
0
100
AcDbBlockEnd
  0
BLOCK
  5
1C
330
1B
100
AcDbEntity
  8
0
100
AcDbBlockBegin
  2
*Paper_Space
 70
0
 10
0.0
 20
0.0
 30
0.0
  3
*Paper_Space
  1

  0
ENDBLK
  5
1D
330
1B
100
AcDbEntity
  8
0
100
AcDbBlockEnd
  0
BLOCK
  5
38
330
37
100
AcDbEntity
  8
0
100
AcDbBlockBegin
  2
LAMP
 70
2
 10
0.0
 20
0.0
 30
0.0
  3
LAMP
  1

  0
CIRCLE
  5
3A
330
37
100
AcDbEntity
  8
0
100
AcDbCircle
 10
0.0
 20
0.0
 30
0.0
 40
0.3
  0
ATTDEF
  5
3B
330
37
100
AcDbEntity
  8
0
100
AcDbText
 10
0.4
 20
0.0
 30
0.0
 40
0.25
  1

100
AcDbAttributeDefinition
  3

  2
NUM
 70
0
  0
ATTDEF
  5
3C
330
37
100
AcDbEntity
  8
0
100
AcDbText
 10
0.4
 20
-0.35
 30
0.0
 40
0.2
  1

100
AcDbAttributeDefinition
  3

  2
HT
 70
0
  0
ENDBLK
  5
39
330
37
100
AcDbEntity
  8
0
100
AcDbBlockEnd
  0
BLOCK
  5
3E
330
3D
100
AcDbEntity
  8
0
100
AcDbBlockBegin
  2
TREE
 70
2
 10
0.0
 20
0.0
 30
0.0
  3
TREE
  1

  0
CIRCLE
  5
40
330
3D
100
AcDbEntity
  8
0
100
AcDbCircle
 10
0.0
 20
0.0
 30
0.0
 40
1.2
  0
ATTDEF
  5
41
330
3D
100
AcDbEntity
  8
0
100
AcDbText
 10
1.3
 20
0.0
 30
0.0
 40
0.25
  1

100
AcDbAttributeDefinition
  3

  2
ESS
 70
0
  0
ATTDEF
  5
42
330
3D
100
AcDbEntity
  8
0
100
AcDbText
 10
1.3
 20
-0.35
 30
0.0
 40
0.2
  1

100
AcDbAttributeDefinition
  3

  2
CIRC
 70
0
  0
ENDBLK
  5
3F
330
3D
100
AcDbEntity
  8
0
100
AcDbBlockEnd
  0
BLOCK
  5
44
330
43
100
AcDbEntity
  8
0
100
AcDbBlockBegin
  2
AVAL
 70
0
 10
0.0
 20
0.0
 30
0.0
  3
AVAL
  1

  0
LWPOLYLINE
  5
46
330
43
100
AcDbEntity
  8
0
100
AcDbPolyline
 90
4
 70
1
 10
-0.3
 20
-0.2
 10
0.3
 20
-0.2
 10
0.3
 20
0.2
 10
-0.3
 20
0.2
  0
ENDBLK
  5
45
330
43
100
AcDbEntity
  8
0
100
AcDbBlockEnd
  0
ENDSEC
  0
SECTION
  2
ENTITIES
  0
LWPOLYLINE
  5
47
330
17
100
AcDbEntity
  8
EMPRISE_CHANTIER
100
AcDbPolyline
 90
30
 70
1
 10
928038.5813821977
 20
6500363.38208917
 10
928020.6717123945
 20
6500351.84056917
 10
928019.7471418572
 20
6500351.319265082
 10
927993.8116706788
 20
6500338.651409793
 10
927981.8753769544
 20
6500332.583053254
 10
927981.2378926994
 20
6500332.289674418
 10
927969.6734520467
 20
6500327.505088328
 10
927958.1072127386
 20
6500322.604174458
 10
927955.6616796785
 20
6500321.426653093
 10
927931.1040695682
 20
6500309.147261333
 10
927885.4666662965
 20
6500266.153916482
 10
927873.1334946463
 20
6500279.245572126
 10
927919.7331297497
 20
6500323.145396614
 10
927920.3982207868
 20
6500323.71351287
 10
927921.1153578898
 20
6500324.214328741
 10
927921.8777566906
 20
6500324.643106341
 10
927947.6778035946
 20
6500337.54374511
 10
927947.7983319289
 20
6500337.6028916715
 10
927950.4986349599
 20
6500338.903084387
 10
927950.8914656504
 20
6500339.080761315
 10
927962.6914516252
 20
6500344.080719305
 10
927962.7619809068
 20
6500344.110251342
 10
927974.0372785446
 20
6500348.775209191
 10
927985.7246367596
 20
6500354.717007622
 10
927985.8533084875
 20
6500354.781134597
 10
928011.3756765412
 20
6500367.247213861
 10
928028.9287020048
 20
6500378.558900808
 10
928029.1105301701
 20
6500378.673027927
 10
928043.5102120256
 20
6500387.473382856
 10
928052.8894694371
 20
6500372.126466838
  0
LWPOLYLINE
  5
48
330
17
100
AcDbEntity
  8
BORDURE
100
AcDbPolyline
 90
11
 70
0
 10
928049.5546222238
 20
6500377.583148161
 10
928035.1814007967
 20
6500368.798964042
 10
928017.2075656175
 20
6500357.216094317
 10
928016.9404674666
 20
6500357.065495365
 10
927990.9590645481
 20
6500344.375205641
 10
927978.9772033759
 20
6500338.283682989
 10
927978.7930412615
 20
6500338.198929108
 10
927967.203479148
 20
6500333.403949577
 10
927955.4710196983
 20
6500328.432604078
 10
927952.8443168127
 20
6500327.167849682
 10
927950.1564150259
 20
6500325.823834455
  0
LWPOLYLINE
  5
49
330
17
100
AcDbEntity
  8
0
100
AcDbPolyline
 90
3
 70
0
 10
927927.6865163376
 20
6500314.588348781
 10
927927.4031956303
 20
6500314.446681681
 10
927925.5488835364
 20
6500312.699801135
  0
LWPOLYLINE
  5
4A
330
17
100
AcDbEntity
  8
BORDURE
100
AcDbPolyline
 90
2
 70
0
 10
927886.7666181554
 20
6500276.164434
 10
927881.081538446
 20
6500270.808727391
  0
LWPOLYLINE
  5
4B
330
17
100
AcDbEntity
  8
BORDURE
100
AcDbPolyline
 90
14
 70
0
 10
928046.8450589717
 20
6500382.016701679
 10
928032.4453768978
 20
6500373.216346364
 10
928032.3928487604
 20
6500373.183376303
 10
928014.5220441543
 20
6500361.666902789
 10
927988.6599821508
 20
6500349.034903924
 10
927988.6228103177
 20
6500349.016378353
 10
927976.7128638374
 20
6500342.96141693
 10
927965.2068318931
 20
6500338.200996652
 10
927965.1864567668
 20
6500338.192465176
 10
927953.3864705474
 20
6500333.192506954
 10
927953.2729861236
 20
6500333.14117806
 10
927950.5726830411
 20
6500331.840985282
 10
927950.5378637437
 20
6500331.823898497
 10
927925.8894462701
 20
6500319.499101498
  0
LWPOLYLINE
  5
4C
330
17
100
AcDbEntity
  8
0
100
AcDbPolyline
 90
2
 70
0
 10
927923.4915110243
 20
6500317.900152219
 10
927877.5186221916
 20
6500274.590761245
  0
INSERT
  5
4D
330
17
100
AcDbEntity
  8
CANDELABRE
100
AcDbBlockReference
 66
1
  2
LAMP
 10
928042.9421984425
 20
6500373.07354671
 30
270.0
  0
ATTRIB
  5
4F
330
17
100
AcDbEntity
  8
0
100
AcDbText
 10
928043.3421984426
 20
6500373.07354671
 30
270.0
 40
0.25
  1
CD-N01
 11
928043.3421984426
 21
6500373.07354671
 31
270.0
100
AcDbAttribute
  2
NUM
 70
0
  0
ATTRIB
  5
50
330
17
100
AcDbEntity
  8
0
100
AcDbText
 10
928043.3421984426
 20
6500372.723546711
 30
270.0
 40
0.2
  1
6
 11
928043.3421984426
 21
6500372.723546711
 31
270.0
100
AcDbAttribute
  2
HT
 70
0
  0
SEQEND
  5
4E
330
4D
100
AcDbEntity
  8
CANDELABRE
  0
INSERT
  5
51
330
17
100
AcDbEntity
  8
CANDELABRE
100
AcDbBlockReference
 66
1
  2
LAMP
 10
928042.9421984425
 20
6500373.07354671
 30
270.0
  0
ATTRIB
  5
53
330
17
100
AcDbEntity
  8
0
100
AcDbText
 10
928043.3421984426
 20
6500373.07354671
 30
270.0
 40
0.25
  1
CD-N01
 11
928043.3421984426
 21
6500373.07354671
 31
270.0
100
AcDbAttribute
  2
NUM
 70
0
  0
ATTRIB
  5
54
330
17
100
AcDbEntity
  8
0
100
AcDbText
 10
928043.3421984426
 20
6500372.723546711
 30
270.0
 40
0.2
  1
6
 11
928043.3421984426
 21
6500372.723546711
 31
270.0
100
AcDbAttribute
  2
HT
 70
0
  0
SEQEND
  5
52
330
51
100
AcDbEntity
  8
CANDELABRE
  0
INSERT
  5
55
330
17
100
AcDbEntity
  8
CANDELABRE
100
AcDbBlockReference
 66
1
  2
LAMP
 10
928026.0314183198
 20
6500362.426949907
 30
270.0
  0
ATTRIB
  5
57
330
17
100
AcDbEntity
  8
0
100
AcDbText
 10
928026.4314183198
 20
6500362.426949907
 30
270.0
 40
0.25
  1
CD-N02
 11
928026.4314183198
 21
6500362.426949907
 31
270.0
100
AcDbAttribute
  2
NUM
 70
0
  0
ATTRIB
  5
58
330
17
100
AcDbEntity
  8
0
100
AcDbText
 10
928026.4314183198
 20
6500362.0769499075
 30
270.0
 40
0.2
  1
6
 11
928026.4314183198
 21
6500362.0769499075
 31
270.0
100
AcDbAttribute
  2
HT
 70
0
  0
SEQEND
  5
56
330
55
100
AcDbEntity
  8
CANDELABRE
  0
INSERT
  5
59
330
17
100
AcDbEntity
  8
CANDELABRE
100
AcDbBlockReference
 66
1
  2
LAMP
 10
928008.6777430177
 20
6500352.584851368
 30
270.0
  0
ATTRIB
  5
5B
330
17
100
AcDbEntity
  8
0
100
AcDbText
 10
928009.0777430177
 20
6500352.584851368
 30
270.0
 40
0.25
  1
CD-N03
 11
928009.0777430177
 21
6500352.584851368
 31
270.0
100
AcDbAttribute
  2
NUM
 70
0
  0
ATTRIB
  5
5C
330
17
100
AcDbEntity
  8
0
100
AcDbText
 10
928009.0777430177
 20
6500352.234851369
 30
270.0
 40
0.2
  1

 11
928009.0777430177
 21
6500352.234851369
 31
270.0
100
AcDbAttribute
  2
HT
 70
0
  0
SEQEND
  5
5A
330
59
100
AcDbEntity
  8
CANDELABRE
  0
INSERT
  5
5D
330
17
100
AcDbEntity
  8
CANDELABRE
100
AcDbBlockReference
 66
1
  2
LAMP
 10
927990.7240782357
 20
6500343.807361708
 30
270.0
  0
ATTRIB
  5
5F
330
17
100
AcDbEntity
  8
0
100
AcDbText
 10
927991.1240782357
 20
6500343.807361708
 30
270.0
 40
0.25
  1
CD-N04
 11
927991.1240782357
 21
6500343.807361708
 31
270.0
100
AcDbAttribute
  2
NUM
 70
0
  0
ATTRIB
  5
60
330
17
100
AcDbEntity
  8
0
100
AcDbText
 10
927991.1240782357
 20
6500343.457361708
 30
270.0
 40
0.2
  1
6
 11
927991.1240782357
 21
6500343.457361708
 31
270.0
100
AcDbAttribute
  2
HT
 70
0
  0
SEQEND
  5
5E
330
5D
100
AcDbEntity
  8
CANDELABRE
  0
INSERT
  5
61
330
17
100
AcDbEntity
  8
CANDELABRE
100
AcDbBlockReference
 66
1
  2
LAMP
 10
927972.6845807815
 20
6500335.239111773
 30
270.0
  0
ATTRIB
  5
63
330
17
100
AcDbEntity
  8
0
100
AcDbText
 10
927973.0845807815
 20
6500335.239111773
 30
270.0
 40
0.25
  1
CD-N05
 11
927973.0845807815
 21
6500335.239111773
 31
270.0
100
AcDbAttribute
  2
NUM
 70
0
  0
ATTRIB
  5
64
330
17
100
AcDbEntity
  8
0
100
AcDbText
 10
927973.0845807815
 20
6500334.889111773
 30
270.0
 40
0.2
  1
6
 11
927973.0845807815
 21
6500334.889111773
 31
270.0
100
AcDbAttribute
  2
HT
 70
0
  0
SEQEND
  5
62
330
61
100
AcDbEntity
  8
CANDELABRE
  0
INSERT
  5
65
330
17
100
AcDbEntity
  8
ARBRES
100
AcDbBlockReference
 66
1
  2
TREE
 10
928035.9884976444
 20
6500376.786991439
 30
270.0
  0
ATTRIB
  5
67
330
17
100
AcDbEntity
  8
0
100
AcDbText
 10
928037.2884976445
 20
6500376.786991439
 30
270.0
 40
0.25
  1
Tilia cordata
 11
928037.2884976445
 21
6500376.786991439
 31
270.0
100
AcDbAttribute
  2
ESS
 70
0
  0
ATTRIB
  5
68
330
17
100
AcDbEntity
  8
0
100
AcDbText
 10
928037.2884976445
 20
6500376.436991439
 30
270.0
 40
0.2
  1
20
 11
928037.2884976445
 21
6500376.436991439
 31
270.0
100
AcDbAttribute
  2
CIRC
 70
0
  0
SEQEND
  5
66
330
65
100
AcDbEntity
  8
ARBRES
  0
INSERT
  5
69
330
17
100
AcDbEntity
  8
ARBRES
100
AcDbBlockReference
 66
1
  2
TREE
 10
928022.4871089688
 20
6500368.226310793
 30
270.0
  0
ATTRIB
  5
6B
330
17
100
AcDbEntity
  8
0
100
AcDbText
 10
928023.7871089688
 20
6500368.226310793
 30
270.0
 40
0.25
  1
Acer campestre
 11
928023.7871089688
 21
6500368.226310793
 31
270.0
100
AcDbAttribute
  2
ESS
 70
0
  0
ATTRIB
  5
6C
330
17
100
AcDbEntity
  8
0
100
AcDbText
 10
928023.7871089688
 20
6500367.876310794
 30
270.0
 40
0.2
  1
20
 11
928023.7871089688
 21
6500367.876310794
 31
270.0
100
AcDbAttribute
  2
CIRC
 70
0
  0
SEQEND
  5
6A
330
69
100
AcDbEntity
  8
ARBRES
  0
INSERT
  5
6D
330
17
100
AcDbEntity
  8
ARBRES
100
AcDbBlockReference
 66
1
  2
TREE
 10
928008.7115013612
 20
6500360.163275015
 30
270.0
  0
ATTRIB
  5
6F
330
17
100
AcDbEntity
  8
0
100
AcDbText
 10
928010.0115013613
 20
6500360.163275015
 30
270.0
 40
0.25
  1
Carpinus betulus
 11
928010.0115013613
 21
6500360.163275015
 31
270.0
100
AcDbAttribute
  2
ESS
 70
0
  0
ATTRIB
  5
70
330
17
100
AcDbEntity
  8
0
100
AcDbText
 10
928010.0115013613
 20
6500359.813275015
 30
270.0
 40
0.2
  1
20
 11
928010.0115013613
 21
6500359.813275015
 31
270.0
100
AcDbAttribute
  2
CIRC
 70
0
  0
SEQEND
  5
6E
330
6D
100
AcDbEntity
  8
ARBRES
  0
INSERT
  5
71
330
17
100
AcDbEntity
  8
ARBRES
100
AcDbBlockReference
 66
1
  2
TREE
 10
927994.3459253508
 20
6500353.146590122
 30
270.0
  0
ATTRIB
  5
73
330
17
100
AcDbEntity
  8
0
100
AcDbText
 10
927995.6459253508
 20
6500353.146590122
 30
270.0
 40
0.25
  1
Tilia cordata
 11
927995.6459253508
 21
6500353.146590122
 31
270.0
100
AcDbAttribute
  2
ESS
 70
0
  0
ATTRIB
  5
74
330
17
100
AcDbEntity
  8
0
100
AcDbText
 10
927995.6459253508
 20
6500352.796590122
 30
270.0
 40
0.2
  1
20
 11
927995.6459253508
 21
6500352.796590122
 31
270.0
100
AcDbAttribute
  2
CIRC
 70
0
  0
SEQEND
  5
72
330
71
100
AcDbEntity
  8
ARBRES
  0
INSERT
  5
75
330
17
100
AcDbEntity
  8
ARBRES
100
AcDbBlockReference
 66
1
  2
TREE
 10
927980.044834648
 20
6500346.000509208
 30
270.0
  0
ATTRIB
  5
77
330
17
100
AcDbEntity
  8
0
100
AcDbText
 10
927981.3448346481
 20
6500346.000509208
 30
270.0
 40
0.25
  1
Acer campestre
 11
927981.3448346481
 21
6500346.000509208
 31
270.0
100
AcDbAttribute
  2
ESS
 70
0
  0
ATTRIB
  5
78
330
17
100
AcDbEntity
  8
0
100
AcDbText
 10
927981.3448346481
 20
6500345.650509208
 30
270.0
 40
0.2
  1
20
 11
927981.3448346481
 21
6500345.650509208
 31
270.0
100
AcDbAttribute
  2
CIRC
 70
0
  0
SEQEND
  5
76
330
75
100
AcDbEntity
  8
ARBRES
  0
INSERT
  5
79
330
17
100
AcDbEntity
  8
ARBRES
100
AcDbBlockReference
 66
1
  2
TREE
 10
928899.1430652902
 20
6500296.60971503
 30
270.0
  0
ATTRIB
  5
7B
330
17
100
AcDbEntity
  8
0
100
AcDbText
 10
927900.4430652902
 20
6500296.60971503
 30
270.0
 40
0.25
  1
Acer campestre
 11
927900.4430652902
 21
6500296.60971503
 31
270.0
100
AcDbAttribute
  2
ESS
 70
0
  0
ATTRIB
  5
7C
330
17
100
AcDbEntity
  8
0
100
AcDbText
 10
927900.4430652902
 20
6500296.25971503
 30
270.0
 40
0.2
  1
20
 11
927900.4430652902
 21
6500296.25971503
 31
270.0
100
AcDbAttribute
  2
CIRC
 70
0
  0
SEQEND
  5
7A
330
79
100
AcDbEntity
  8
ARBRES
  0
INSERT
  5
7D
330
17
100
AcDbEntity
  8
AVALOIRS
100
AcDbBlockReference
  2
AVAL
 10
928034.2122829073
 20
6500373.944872254
 30
270.0
  0
INSERT
  5
7F
330
17
100
AcDbEntity
  8
AVALOIRS
100
AcDbBlockReference
  2
AVAL
 10
928013.0877912455
 20
6500360.6327451365
 30
270.0
  0
INSERT
  5
81
330
17
100
AcDbEntity
  8
AVALOIRS
100
AcDbBlockReference
  2
AVAL
 10
927990.6415786014
 20
6500349.669174895
 30
270.0
  0
INSERT
  5
83
330
17
100
AcDbEntity
  8
AVALOIRS
100
AcDbBlockReference
  2
AVAL
 10
927968.0483543361
 20
6500339.052215947
 30
270.0
  0
INSERT
  5
85
330
17
100
AcDbEntity
  8
AVALOIRS
100
AcDbBlockReference
  2
AVAL
 10
927945.2580974414
 20
6500328.84873539
 30
270.0
  0
INSERT
  5
87
330
17
100
AcDbEntity
  8
AVALOIRS
100
AcDbBlockReference
  2
AVAL
 10
927905.0365239102
 20
6500300.102538118
 30
270.0
  0
INSERT
  5
89
330
17
100
AcDbEntity
  8
AVALOIRS
100
AcDbBlockReference
  2
AVAL
 10
927886.853671443
 20
6500282.973133037
 30
270.0
  0
LINE
  5
8B
330
17
100
AcDbEntity
  8
MOBILIER_DIVERS
100
AcDbLine
 10
927950.6818409113
 20
6500325.865077629
 30
0.0
 11
927952.4804463375
 21
6500325.866773309
 31
0.0
  0
TEXT
  5
8C
330
17
100
AcDbEntity
  8
COTATION
100
AcDbText
 10
928001.1126384068
 20
6500349.334590764
 30
0.0
 40
0.4
  1
L=112.39
 11
928001.1126384068
 21
6500349.334590764
 31
0.0
100
AcDbText
  0
TEXT
  5
8D
330
17
100
AcDbEntity
  8
COTATION
100
AcDbText
 10
927926.5913227206
 20
6500313.68184549
 30
0.0
 40
0.4
  1
L=2.87
 11
927926.5913227206
 21
6500313.68184549
 31
0.0
100
AcDbText
  0
TEXT
  5
8E
330
17
100
AcDbEntity
  8
COTATION
100
AcDbText
 10
927883.924078332
 20
6500273.486580692
 30
0.0
 40
0.4
  1
L=7.82
 11
927883.924078332
 21
6500273.486580692
 31
0.0
100
AcDbText
  0
TEXT
  5
8F
330
17
100
AcDbEntity
  8
CARTOUCHE
100
AcDbText
 10
927873.1458437312
 20
6500258.142304505
 30
0.0
 40
1.0
  1
RECOLEMENT - REAMENAGEMENT RUE CROIX D'OR - CABINET GEOMETRE (FICTIF) - RGF93 LAMBERT 93
 11
927873.1458437312
 21
6500258.142304505
 31
0.0
100
AcDbText
  0
ENDSEC
  0
SECTION
  2
OBJECTS
  0
DICTIONARY
  5
A
330
0
100
AcDbDictionary
281
1
  3
ACAD_COLOR
350
B
  3
ACAD_GROUP
350
C
  3
ACAD_LAYOUT
350
D
  3
ACAD_MATERIAL
350
E
  3
ACAD_MLEADERSTYLE
350
F
  3
ACAD_MLINESTYLE
350
10
  3
ACAD_PLOTSETTINGS
350
11
  3
ACAD_PLOTSTYLENAME
350
12
  3
ACAD_SCALELIST
350
14
  3
ACAD_TABLESTYLE
350
15
  3
ACAD_VISUALSTYLE
350
16
  3
EZDXF_META
350
2D
  0
DICTIONARY
  5
B
330
A
100
AcDbDictionary
281
1
  0
DICTIONARY
  5
C
330
A
100
AcDbDictionary
281
1
  0
DICTIONARY
  5
D
330
A
100
AcDbDictionary
281
1
  3
Model
350
1A
  3
Layout1
350
1E
  0
DICTIONARY
  5
E
330
A
100
AcDbDictionary
281
1
  3
ByBlock
350
1F
  3
ByLayer
350
20
  3
Global
350
21
  0
DICTIONARY
  5
F
330
A
100
AcDbDictionary
281
1
  3
Standard
350
2C
  0
DICTIONARY
  5
10
330
A
100
AcDbDictionary
281
1
  3
Standard
350
22
  0
DICTIONARY
  5
11
330
A
100
AcDbDictionary
281
1
  0
ACDBDICTIONARYWDFLT
  5
12
330
A
100
AcDbDictionary
281
1
  3
Normal
350
13
100
AcDbDictionaryWithDefault
340
13
  0
ACDBPLACEHOLDER
  5
13
330
12
  0
DICTIONARY
  5
14
330
A
100
AcDbDictionary
281
1
  0
DICTIONARY
  5
15
330
A
100
AcDbDictionary
281
1
  0
DICTIONARY
  5
16
330
A
100
AcDbDictionary
281
1
  0
LAYOUT
  5
1A
330
D
100
AcDbPlotSettings
  1

  4
A3
  6

 40
7.5
 41
20.0
 42
7.5
 43
20.0
 44
420.0
 45
297.0
 46
0.0
 47
0.0
 48
0.0
 49
0.0
140
0.0
141
0.0
142
1.0
143
1.0
 70
1024
 72
1
 73
0
 74
5
  7

 75
16
 76
0
 77
2
 78
300
147
1.0
148
0.0
149
0.0
100
AcDbLayout
  1
Model
 70
1
 71
0
 10
0.0
 20
0.0
 11
420.0
 21
297.0
 12
0.0
 22
0.0
 32
0.0
 14
1e+20
 24
1e+20
 34
1e+20
 15
-1e+20
 25
-1e+20
 35
-1e+20
146
0.0
 13
0.0
 23
0.0
 33
0.0
 16
1.0
 26
0.0
 36
0.0
 17
0.0
 27
1.0
 37
0.0
 76
1
330
17
  0
LAYOUT
  5
1E
330
D
100
AcDbPlotSettings
  1

  4
A3
  6

 40
7.5
 41
20.0
 42
7.5
 43
20.0
 44
420.0
 45
297.0
 46
0.0
 47
0.0
 48
0.0
 49
0.0
140
0.0
141
0.0
142
1.0
143
1.0
 70
0
 72
1
 73
0
 74
5
  7

 75
16
 76
0
 77
2
 78
300
147
1.0
148
0.0
149
0.0
100
AcDbLayout
  1
Layout1
 70
1
 71
1
 10
0.0
 20
0.0
 11
420.0
 21
297.0
 12
0.0
 22
0.0
 32
0.0
 14
1e+20
 24
1e+20
 34
1e+20
 15
-1e+20
 25
-1e+20
 35
-1e+20
146
0.0
 13
0.0
 23
0.0
 33
0.0
 16
1.0
 26
0.0
 36
0.0
 17
0.0
 27
1.0
 37
0.0
 76
1
330
1B
  0
MATERIAL
  5
1F
102
{ACAD_REACTORS
330
E
102
}
330
E
100
AcDbMaterial
  1
ByBlock
  2

 70
0
 40
1.0
 71
1
 41
1.0
 91
-1023410177
 42
1.0
 72
1
  3

 73
1
 74
1
 75
1
 44
0.5
 73
0
 45
1.0
 46
1.0
 77
1
  4

 78
1
 79
1
170
1
 48
1.0
171
1
  6

172
1
173
1
174
1
140
1.0
141
1.0
175
1
  7

176
1
177
1
178
1
143
1.0
179
1
  8

270
1
271
1
272
1
145
1.0
146
1.0
273
1
  9

274
1
275
1
276
1
 42
1.0
 72
1
  3

 73
1
 74
1
 75
1
 94
63
  0
MATERIAL
  5
20
102
{ACAD_REACTORS
330
E
102
}
330
E
100
AcDbMaterial
  1
ByLayer
  2

 70
0
 40
1.0
 71
1
 41
1.0
 91
-1023410177
 42
1.0
 72
1
  3

 73
1
 74
1
 75
1
 44
0.5
 73
0
 45
1.0
 46
1.0
 77
1
  4

 78
1
 79
1
170
1
 48
1.0
171
1
  6

172
1
173
1
174
1
140
1.0
141
1.0
175
1
  7

176
1
177
1
178
1
143
1.0
179
1
  8

270
1
271
1
272
1
145
1.0
146
1.0
273
1
  9

274
1
275
1
276
1
 42
1.0
 72
1
  3

 73
1
 74
1
 75
1
 94
63
  0
MATERIAL
  5
21
102
{ACAD_REACTORS
330
E
102
}
330
E
100
AcDbMaterial
  1
Global
  2

 70
0
 40
1.0
 71
1
 41
1.0
 91
-1023410177
 42
1.0
 72
1
  3

 73
1
 74
1
 75
1
 44
0.5
 73
0
 45
1.0
 46
1.0
 77
1
  4

 78
1
 79
1
170
1
 48
1.0
171
1
  6

172
1
173
1
174
1
140
1.0
141
1.0
175
1
  7

176
1
177
1
178
1
143
1.0
179
1
  8

270
1
271
1
272
1
145
1.0
146
1.0
273
1
  9

274
1
275
1
276
1
 42
1.0
 72
1
  3

 73
1
 74
1
 75
1
 94
63
  0
MLINESTYLE
  5
22
102
{ACAD_REACTORS
330
10
102
}
330
10
100
AcDbMlineStyle
  2
Standard
 70
0
  3

 62
256
 51
90.0
 52
90.0
 71
2
 49
0.5
 62
256
  6
BYLAYER
 49
-0.5
 62
256
  6
BYLAYER
  0
MLEADERSTYLE
  5
2C
102
{ACAD_REACTORS
330
F
102
}
330
F
100
AcDbMLeaderStyle
179
2
170
2
171
1
172
0
 90
2
 40
0.0
 41
0.0
173
1
 91
-1056964608
 92
-2
290
1
 42
2.0
291
1
 43
8.0
  3
Standard
 44
4.0
300

342
29
174
1
175
1
176
0
178
1
 93
-1056964608
 45
4.0
292
0
297
0
 46
4.0
 94
-1056964608
 47
1.0
 49
1.0
140
1.0
294
1
141
0.0
177
0
142
1.0
295
0
296
0
143
3.75
271
0
272
9
273
9
  0
DICTIONARY
  5
2D
330
A
100
AcDbDictionary
280
1
281
1
  3
CREATED_BY_EZDXF
350
2E
  3
WRITTEN_BY_EZDXF
350
92
  0
DICTIONARYVAR
  5
2E
330
2D
100
DictionaryVariables
280
0
  1
1.4.4 @ 2026-09-30T19:20:14.833529+00:00
  0
DICTIONARYVAR
  5
92
330
2D
100
DictionaryVariables
280
0
  1
1.4.4 @ 2026-09-30T19:20:14.855946+00:00
  0
ENDSEC
  0
EOF
